<?xml version="1.0" standalone="no"?>
<!DOCTYPE svg PUBLIC "-//W3C//DTD SVG 20010904//EN"
 "http://www.w3.org/TR/2001/REC-SVG-20010904/DTD/svg10.dtd">
<svg version="1.0" xmlns="http://www.w3.org/2000/svg"
 width="1024.000000pt" height="1024.000000pt" viewBox="0 0 1024.000000 1024.000000"
 preserveAspectRatio="xMidYMid meet">

<g transform="translate(0.000000,1024.000000) scale(0.100000,-0.100000)"
fill="#000000" stroke="none">
<path d="M4820 8933 c-111 -8 -315 -37 -425 -60 -610 -127 -1171 -508 -1523
-1033 -75 -111 -189 -339 -235 -468 -224 -627 -180 -1387 115 -1976 129 -257
239 -406 477 -644 206 -205 263 -272 305 -362 l31 -65 5 -1225 5 -1226 128
270 128 270 -3 965 c-4 1072 0 1004 -72 1156 -49 103 -112 180 -268 328 -168
158 -264 271 -371 432 -185 280 -290 554 -343 897 -22 142 -25 479 -5 618 50
348 175 650 394 950 86 117 322 354 439 441 270 200 592 344 916 409 198 39
309 50 516 50 366 0 674 -69 981 -219 575 -282 994 -791 1109 -1346 24 -119
29 -240 15 -385 -19 -182 -16 -264 9 -321 27 -61 89 -158 255 -392 189 -269
258 -381 264 -428 5 -36 2 -43 -34 -77 -22 -21 -62 -46 -89 -56 -157 -59 -231
-137 -222 -237 3 -32 19 -71 51 -124 52 -88 62 -120 48 -158 -13 -33 -80 -82
-143 -105 -26 -9 -48 -19 -48 -22 0 -3 16 -12 36 -19 48 -17 104 -68 104 -95
0 -30 -21 -57 -80 -102 -64 -48 -107 -112 -116 -171 -5 -35 0 -64 25 -141 19
-60 31 -118 31 -151 0 -102 -61 -183 -165 -218 -67 -23 -225 -21 -375 3 -157
25 -409 25 -499 0 -174 -48 -300 -156 -362 -311 l-17 -40 -7 39 c-5 22 -5 105
-1 185 11 250 -12 307 -180 452 -51 44 -129 119 -174 166 l-80 86 0 541 0 541
30 17 c91 52 93 205 3 252 -54 27 -94 29 -142 4 -103 -53 -109 -200 -11 -256
l30 -17 0 -546 0 -545 29 -45 c40 -60 104 -127 243 -253 85 -77 123 -120 142
-158 l26 -52 0 -1208 0 -1208 180 0 180 0 2 917 3 918 28 56 c34 70 110 142
185 177 80 36 178 40 362 12 174 -25 349 -28 435 -5 195 51 333 174 385 343
28 91 25 151 -11 252 -38 102 -45 151 -29 189 6 16 45 59 85 95 84 75 104 115
85 170 -13 40 -77 102 -115 112 -35 9 -31 18 13 33 92 33 142 85 142 152 0 24
-13 57 -40 102 -43 71 -50 115 -22 139 9 9 61 35 116 58 151 66 223 131 252
228 35 115 -20 228 -286 587 -172 232 -240 336 -256 392 -14 48 -14 68 2 214
14 139 15 178 5 278 -51 480 -265 920 -621 1271 -362 358 -794 569 -1364 665
-228 39 -435 51 -616 38z"/>
<path d="M4788 8400 c-38 -20 -70 -59 -82 -97 -5 -15 -17 -24 -39 -27 -18 -2
-81 -11 -140 -21 l-108 -16 -29 25 c-39 33 -94 49 -136 41 -47 -8 -101 -58
-115 -106 -11 -36 -16 -40 -78 -60 -162 -52 -370 -186 -490 -314 -53 -57 -62
-72 -59 -98 2 -25 8 -33 26 -35 18 -3 41 15 103 82 111 118 265 218 437 283
l64 23 19 -23 c41 -53 130 -72 194 -41 37 17 60 47 79 102 12 34 16 37 77 48
35 6 91 14 124 17 l60 6 16 -38 c24 -56 79 -93 144 -99 30 -2 66 -1 80 2 34 9
100 69 115 105 15 38 51 42 250 31 185 -10 277 -32 393 -92 77 -40 82 -45 85
-78 5 -74 14 -102 44 -136 41 -47 77 -64 135 -64 99 0 174 70 180 168 5 68
-15 111 -71 156 -51 42 -132 48 -196 14 l-44 -24 -86 43 c-142 72 -250 94
-483 100 l-198 6 -19 38 c-32 61 -81 93 -154 96 -46 3 -70 -2 -98 -17z"/>
<path d="M5324 7981 c-18 -11 -35 -24 -38 -30 -5 -7 -59 -11 -150 -11 -157 0
-170 -5 -164 -57 l3 -28 138 -5 139 -5 14 -40 c30 -90 141 -129 222 -78 22 14
29 10 138 -72 109 -82 115 -88 109 -115 -4 -19 1 -45 14 -75 16 -36 29 -50 63
-65 55 -25 82 -25 134 1 31 15 48 32 63 63 12 23 21 49 21 57 0 11 28 24 87
42 l87 26 37 -33 c20 -19 42 -35 50 -38 18 -6 2 -106 -31 -190 l-21 -58 -108
0 -108 0 -214 -151 c-118 -83 -262 -187 -320 -230 l-106 -79 -209 0 -209 0
-138 -66 -138 -67 -22 20 c-35 32 -64 44 -111 45 -90 1 -149 -62 -150 -161
l-1 -55 -139 -77 -140 -77 -35 26 c-46 36 -134 38 -178 6 -42 -31 -65 -77 -65
-130 0 -132 176 -195 265 -96 10 11 24 39 31 62 12 41 18 45 168 131 l155 89
50 -11 c43 -10 55 -9 96 9 47 21 87 69 87 104 0 13 41 39 143 90 l142 72 220
6 220 5 125 91 c69 50 210 150 313 222 l188 132 248 0 248 0 24 -26 c34 -37
72 -54 118 -54 l40 0 26 -81 c14 -45 28 -116 32 -158 l6 -76 -54 50 c-66 60
-144 101 -218 115 -115 22 -171 5 -171 -50 l0 -28 93 -4 c128 -5 182 -31 302
-148 l92 -90 13 27 c18 38 25 217 11 299 -7 36 -23 94 -37 128 -23 58 -24 64
-9 92 34 65 1 172 -62 202 -24 12 -45 37 -77 92 -24 42 -63 99 -85 128 -31 38
-41 60 -41 87 0 39 -27 100 -57 127 -28 25 -88 48 -125 48 -45 -1 -110 -32
-137 -66 -12 -15 -28 -48 -34 -73 -13 -49 -23 -55 -134 -86 l-62 -17 -31 25
c-41 35 -91 43 -142 24 l-40 -16 -114 86 c-94 71 -114 90 -114 112 -1 44 -36
109 -72 131 -43 26 -122 27 -164 1z m1214 -451 c13 -17 39 -55 58 -87 l34 -56
-31 -19 c-17 -11 -38 -36 -47 -58 l-17 -40 -101 0 -102 0 24 78 c12 42 25 94
29 114 5 30 11 38 33 43 15 3 41 17 57 30 17 13 32 24 35 24 3 0 15 -13 28
-29z"/>
<path d="M4593 7960 c-70 -16 -127 -73 -149 -147 -15 -51 -16 -52 -62 -59 -26
-3 -100 -17 -165 -31 l-119 -24 -41 45 c-49 52 -80 66 -145 66 -129 -1 -208
-134 -153 -256 33 -73 112 -107 206 -90 45 9 111 67 120 106 6 27 12 30 98 50
50 11 130 27 176 35 80 14 86 14 95 -2 33 -63 121 -113 197 -113 64 0 165 62
181 112 8 22 274 -132 376 -219 29 -24 34 -35 37 -81 7 -94 62 -162 147 -181
137 -31 262 102 218 234 -39 118 -165 168 -274 110 l-48 -25 -66 49 c-93 68
-224 148 -298 181 -60 27 -62 29 -74 81 -17 70 -85 140 -152 157 -52 13 -59
13 -105 2z"/>
<path d="M3335 7566 c-75 -33 -122 -133 -96 -207 10 -29 8 -37 -23 -83 -70
-107 -126 -255 -126 -336 0 -15 -7 -33 -15 -40 -8 -7 -15 -28 -15 -46 0 -65
80 -84 117 -28 14 22 15 31 4 59 -23 64 10 188 83 308 38 62 43 67 66 60 14
-4 52 -8 85 -8 47 0 67 5 93 23 28 21 35 22 50 10 39 -31 242 -222 242 -229 0
-4 -38 -39 -85 -79 l-84 -71 -31 22 c-41 31 -127 33 -166 3 -48 -35 -66 -68
-67 -121 -2 -113 102 -183 207 -139 18 8 40 23 48 35 14 20 18 17 134 -99
l119 -120 110 73 c61 40 153 102 205 139 52 36 186 125 298 197 l203 131 38
-30 c89 -72 213 -63 292 22 30 31 30 31 64 15 19 -9 52 -32 74 -52 65 -59 131
-46 131 25 0 32 -28 60 -59 60 -12 0 -53 17 -91 38 -55 29 -70 42 -70 60 0 32
-27 92 -53 120 -37 40 -91 62 -152 62 -62 0 -104 -17 -150 -61 l-31 -29 -96
24 c-52 14 -122 28 -155 31 -51 6 -61 11 -75 36 -37 64 -131 88 -195 49 -83
-50 -94 -157 -22 -226 27 -26 37 -29 96 -29 65 0 65 0 107 47 l43 46 69 -13
c38 -7 99 -21 137 -30 65 -17 67 -18 67 -50 0 -30 -7 -37 -92 -90 -51 -32
-225 -146 -386 -253 l-294 -195 -106 106 -106 106 29 32 c17 17 60 55 97 86
l67 55 34 -26 c18 -14 48 -44 66 -66 36 -45 56 -49 95 -19 48 38 25 99 -46
121 -32 9 -80 48 -207 169 -92 86 -181 169 -198 184 -27 22 -33 34 -33 68 0
117 -135 201 -245 153z"/>
<path d="M6017 6945 c-72 -25 -126 -100 -127 -175 -1 -32 -7 -39 -63 -75 -33
-22 -124 -84 -201 -137 l-140 -98 -201 0 c-155 0 -212 -4 -246 -15 -41 -14
-48 -14 -75 0 -16 8 -48 15 -72 15 -88 0 -146 -58 -146 -145 l0 -52 -161 -117
c-88 -64 -171 -126 -185 -136 -14 -11 -64 -29 -111 -41 l-85 -23 -22 22 c-30
30 -64 42 -115 42 -117 0 -184 -136 -115 -232 28 -40 69 -58 129 -58 46 0 55
4 90 39 22 21 42 53 45 70 7 33 0 29 136 64 44 12 83 34 165 95 60 45 148 110
198 145 l89 64 35 -14 c41 -18 100 -12 137 12 34 22 64 74 64 110 0 23 7 35
29 48 25 15 58 17 231 17 164 0 207 3 232 16 16 9 108 72 203 140 95 68 176
124 180 124 4 0 25 -16 46 -35 22 -19 44 -35 49 -35 16 0 12 -78 -9 -163 -13
-55 -26 -84 -45 -102 -48 -44 -24 -115 40 -115 47 0 74 29 74 80 0 21 7 65 15
97 9 32 19 88 22 125 5 61 8 66 32 71 145 29 190 250 70 339 -64 48 -124 58
-192 33z"/>
<path d="M3044 6664 c-25 -38 -9 -78 32 -82 38 -4 64 19 64 57 0 34 -17 51
-52 51 -19 0 -33 -8 -44 -26z"/>
<path d="M6450 6624 c-45 -20 -68 -41 -91 -86 -35 -68 -21 -156 34 -216 21
-22 21 -23 3 -56 -28 -52 -122 -141 -184 -174 -74 -39 -157 -56 -233 -47 -53
6 -62 10 -70 34 -42 110 -174 162 -284 112 -36 -16 -95 -72 -95 -89 0 -4 -76
-6 -169 -4 l-168 3 -62 -43 c-33 -24 -184 -136 -335 -251 l-274 -207 -39 22
c-29 18 -53 23 -105 23 -58 0 -72 -4 -109 -30 -56 -39 -89 -103 -89 -169 1
-85 53 -169 123 -195 48 -18 138 -13 175 9 l33 21 47 -40 c26 -22 90 -83 142
-135 52 -53 100 -96 107 -96 22 0 33 35 23 72 -9 32 -134 164 -228 240 -31 26
-32 28 -22 73 7 30 7 59 0 88 -9 37 -7 44 11 56 12 8 80 60 153 116 155 119
196 148 200 144 1 -2 0 -212 -2 -465 l-4 -462 -42 19 -41 18 -3 -302 c-2 -196
1 -323 8 -362 21 -108 60 -163 258 -368 133 -137 190 -203 208 -241 l24 -51 0
-633 0 -634 79 -181 c103 -237 103 -237 113 -237 5 0 7 392 6 887 l-3 888 -29
59 c-23 48 -70 100 -237 265 -150 148 -214 219 -228 251 -20 44 -21 64 -21
832 l0 787 91 71 c102 79 88 75 282 64 l105 -7 11 -43 c21 -84 110 -154 196
-154 77 0 158 56 189 131 l15 36 79 -5 c148 -8 254 32 366 138 39 38 84 91
101 118 30 49 31 50 86 54 129 9 205 143 150 263 -10 22 -27 48 -37 57 -52 46
-148 61 -214 32z"/>
<path d="M3114 6466 c-51 -14 -76 -32 -103 -76 -33 -55 -22 -142 22 -179 10
-7 17 -28 17 -45 0 -58 29 -221 55 -311 28 -96 101 -271 117 -281 18 -11 40
23 41 63 1 22 -12 70 -31 115 -36 87 -77 245 -87 340 l-7 65 42 7 c54 8 104
57 120 115 l11 43 172 -7 c95 -4 176 -11 181 -16 32 -29 106 6 106 49 0 58 2
57 -254 54 -229 -4 -235 -3 -245 17 -23 42 -95 63 -157 47z"/>
<path d="M3485 6106 c-38 -17 -80 -62 -94 -99 -41 -107 45 -227 162 -227 42 0
48 -3 63 -32 40 -78 163 -180 279 -234 58 -26 58 -26 84 -6 32 24 37 46 17 77
-14 21 -25 25 -62 25 -36 0 -57 8 -100 36 -59 39 -154 139 -154 162 0 8 10 28
22 45 30 42 36 123 13 172 -10 20 -35 48 -55 62 -47 30 -131 40 -175 19z"/>
<path d="M3363 5590 c-33 -13 -37 -49 -20 -152 33 -196 117 -301 429 -537 129
-98 180 -143 188 -164 6 -19 10 -218 10 -555 l0 -525 40 56 40 55 0 484 c0
320 -4 497 -11 523 -14 52 -55 90 -259 245 -201 152 -275 226 -317 311 -38 79
-49 142 -28 159 21 18 19 66 -5 90 -22 22 -33 23 -67 10z"/>
<path d="M3750 5463 c-24 -9 -40 -35 -40 -66 0 -36 41 -76 245 -236 83 -65
177 -143 210 -174 l60 -54 5 -448 5 -448 36 44 37 45 3 409 c4 377 3 413 -14
442 -18 34 -146 148 -335 297 -72 57 -111 95 -107 104 7 18 -21 69 -44 82 -21
11 -37 12 -61 3z"/>
<path d="M4545 5035 c-28 -27 -33 -71 -10 -101 12 -16 14 -75 14 -354 l0 -335
-40 -28 c-56 -39 -79 -92 -79 -190 0 -43 -5 -88 -11 -100 -15 -27 -115 -140
-272 -307 -65 -69 -131 -145 -145 -170 l-27 -45 -3 -285 -3 -285 41 69 40 68
0 184 c0 138 4 193 14 219 8 19 55 76 104 127 122 127 289 315 319 360 21 31
26 53 32 141 7 125 24 160 74 155 48 -5 67 -50 67 -161 0 -67 5 -97 19 -126
11 -21 106 -127 211 -237 105 -109 198 -212 207 -229 14 -25 16 -63 14 -250
l-2 -220 45 -70 46 -70 0 295 c0 274 -2 298 -21 339 -25 57 -81 122 -255 301
-77 80 -148 156 -157 170 -13 18 -17 47 -17 110 0 106 -28 175 -84 209 l-36
23 0 336 c1 281 3 340 15 356 24 32 19 81 -11 105 -35 27 -59 26 -89 -4z"/>
<path d="M4540 3742 c0 -6 -29 -73 -64 -149 -36 -76 -143 -311 -239 -523 -96
-212 -281 -619 -412 -905 -130 -286 -248 -544 -261 -573 l-23 -52 222 2 221 3
77 180 78 180 404 3 404 2 79 -185 79 -185 224 0 c208 0 223 1 218 18 -5 18
-383 847 -634 1392 -83 179 -196 429 -253 555 -101 224 -120 262 -120 237z
m88 -1067 c38 -88 90 -206 115 -262 25 -56 48 -111 52 -122 6 -21 5 -21 -249
-21 -141 0 -256 3 -256 8 0 7 59 141 202 460 28 62 54 109 59 105 4 -4 39 -80
77 -168z"/>
</g>
</svg>
